<mxfile host="app.diagrams.net" modified="2023-10-31T16:35:56.692Z" agent="Mozilla/5.0 (Windows NT 10.0; Win64; x64) AppleWebKit/537.36 (KHTML, like Gecko) Chrome/118.0.0.0 Safari/537.36" etag="MiYvm6-9GoDsfVQTXxU1" version="22.0.8" type="device">
  <diagram name="第 1 页" id="JnFdMpKdphpYOlLl3OYn">
    <mxGraphModel dx="794" dy="454" grid="1" gridSize="10" guides="1" tooltips="1" connect="1" arrows="1" fold="1" page="1" pageScale="1" pageWidth="827" pageHeight="1169" math="0" shadow="0">
      <root>
        <mxCell id="0" />
        <mxCell id="1" parent="0" />
        <mxCell id="YCnehJ6aSk7mKg9QGopF-14" style="edgeStyle=none;rounded=0;orthogonalLoop=1;jettySize=auto;html=1;" edge="1" parent="1" source="YCnehJ6aSk7mKg9QGopF-11">
          <mxGeometry relative="1" as="geometry">
            <mxPoint x="400" y="240" as="targetPoint" />
          </mxGeometry>
        </mxCell>
        <mxCell id="YCnehJ6aSk7mKg9QGopF-11" value="&lt;span&gt;名字&lt;/span&gt;&lt;br&gt;關係的名字是&quot;使用&quot;" style="rounded=0;whiteSpace=wrap;html=1;fontStyle=0;labelBackgroundColor=none;" vertex="1" parent="1">
          <mxGeometry x="100" y="160" width="120" height="60" as="geometry" />
        </mxCell>
        <mxCell id="YCnehJ6aSk7mKg9QGopF-19" style="edgeStyle=none;rounded=0;orthogonalLoop=1;jettySize=auto;html=1;exitX=0.5;exitY=1;exitDx=0;exitDy=0;entryX=0.5;entryY=0;entryDx=0;entryDy=0;" edge="1" parent="1" source="YCnehJ6aSk7mKg9QGopF-15">
          <mxGeometry relative="1" as="geometry">
            <mxPoint x="410" y="330" as="targetPoint" />
          </mxGeometry>
        </mxCell>
        <mxCell id="YCnehJ6aSk7mKg9QGopF-15" value="&lt;span style=&quot;font-weight: 400;&quot;&gt;classDiagrm&lt;/span&gt;" style="swimlane;fontStyle=1;align=center;verticalAlign=top;childLayout=stackLayout;horizontal=1;startSize=26;horizontalStack=0;resizeParent=1;resizeParentMax=0;resizeLast=0;collapsible=1;marginBottom=0;whiteSpace=wrap;html=1;labelBackgroundColor=none;" vertex="1" parent="1">
          <mxGeometry x="330" y="170" width="160" height="34" as="geometry" />
        </mxCell>
        <mxCell id="YCnehJ6aSk7mKg9QGopF-17" value="" style="line;strokeWidth=1;fillColor=none;align=left;verticalAlign=middle;spacingTop=-1;spacingLeft=3;spacingRight=3;rotatable=0;labelPosition=right;points=[];portConstraint=eastwest;strokeColor=inherit;" vertex="1" parent="YCnehJ6aSk7mKg9QGopF-15">
          <mxGeometry y="26" width="160" height="8" as="geometry" />
        </mxCell>
        <mxCell id="YCnehJ6aSk7mKg9QGopF-20" value="&lt;span style=&quot;font-weight: 400;&quot;&gt;Class&lt;/span&gt;" style="swimlane;fontStyle=1;align=center;verticalAlign=top;childLayout=stackLayout;horizontal=1;startSize=26;horizontalStack=0;resizeParent=1;resizeParentMax=0;resizeLast=0;collapsible=1;marginBottom=0;whiteSpace=wrap;html=1;" vertex="1" parent="1">
          <mxGeometry x="330" y="330" width="160" height="34" as="geometry" />
        </mxCell>
        <mxCell id="YCnehJ6aSk7mKg9QGopF-22" value="" style="line;strokeWidth=1;fillColor=none;align=left;verticalAlign=middle;spacingTop=-1;spacingLeft=3;spacingRight=3;rotatable=0;labelPosition=right;points=[];portConstraint=eastwest;strokeColor=inherit;" vertex="1" parent="YCnehJ6aSk7mKg9QGopF-20">
          <mxGeometry y="26" width="160" height="8" as="geometry" />
        </mxCell>
        <mxCell id="YCnehJ6aSk7mKg9QGopF-24" value="&lt;span style=&quot;font-weight: 400;&quot;&gt;+diagram&lt;/span&gt;" style="text;align=center;fontStyle=1;verticalAlign=middle;spacingLeft=3;spacingRight=3;strokeColor=none;rotatable=0;points=[[0,0.5],[1,0.5]];portConstraint=eastwest;html=1;" vertex="1" parent="1">
          <mxGeometry x="260" y="210" width="80" height="26" as="geometry" />
        </mxCell>
        <mxCell id="YCnehJ6aSk7mKg9QGopF-28" style="edgeStyle=none;rounded=0;orthogonalLoop=1;jettySize=auto;html=1;" edge="1" parent="1" source="YCnehJ6aSk7mKg9QGopF-26">
          <mxGeometry relative="1" as="geometry">
            <mxPoint x="420" y="240" as="targetPoint" />
          </mxGeometry>
        </mxCell>
        <mxCell id="YCnehJ6aSk7mKg9QGopF-26" value="&lt;br&gt;&lt;div style=&quot;&quot;&gt;&lt;span style=&quot;background-color: initial;&quot;&gt;方向&lt;/span&gt;&lt;/div&gt;&lt;div style=&quot;&quot;&gt;雙向關聯(省略箭頭)&lt;/div&gt;" style="rounded=0;whiteSpace=wrap;html=1;verticalAlign=middle;labelPosition=center;verticalLabelPosition=middle;align=center;fontStyle=0;horizontal=1;" vertex="1" parent="1">
          <mxGeometry x="550" y="170" width="130" height="47" as="geometry" />
        </mxCell>
        <mxCell id="YCnehJ6aSk7mKg9QGopF-29" value="&lt;span style=&quot;font-weight: normal;&quot;&gt;1..*&lt;/span&gt;" style="text;align=center;fontStyle=1;verticalAlign=middle;spacingLeft=3;spacingRight=3;strokeColor=none;rotatable=0;points=[[0,0.5],[1,0.5]];portConstraint=eastwest;html=1;" vertex="1" parent="1">
          <mxGeometry x="450" y="220" width="80" height="26" as="geometry" />
        </mxCell>
        <mxCell id="YCnehJ6aSk7mKg9QGopF-30" value="use" style="text;align=center;fontStyle=0;verticalAlign=middle;spacingLeft=3;spacingRight=3;strokeColor=none;rotatable=0;points=[[0,0.5],[1,0.5]];portConstraint=eastwest;html=1;" vertex="1" parent="1">
          <mxGeometry x="370" y="246" width="80" height="26" as="geometry" />
        </mxCell>
        <mxCell id="YCnehJ6aSk7mKg9QGopF-34" style="edgeStyle=none;rounded=0;orthogonalLoop=1;jettySize=auto;html=1;" edge="1" parent="1" source="YCnehJ6aSk7mKg9QGopF-31">
          <mxGeometry relative="1" as="geometry">
            <mxPoint x="330" y="300" as="targetPoint" />
          </mxGeometry>
        </mxCell>
        <mxCell id="YCnehJ6aSk7mKg9QGopF-31" value="角色&lt;br&gt;類的角色是&quot;事務&quot;" style="rounded=0;whiteSpace=wrap;html=1;" vertex="1" parent="1">
          <mxGeometry x="100" y="304" width="120" height="60" as="geometry" />
        </mxCell>
        <mxCell id="YCnehJ6aSk7mKg9QGopF-36" value="+thing" style="text;html=1;strokeColor=none;fillColor=none;align=center;verticalAlign=middle;whiteSpace=wrap;rounded=0;" vertex="1" parent="1">
          <mxGeometry x="320" y="290" width="60" height="30" as="geometry" />
        </mxCell>
        <mxCell id="YCnehJ6aSk7mKg9QGopF-39" style="edgeStyle=none;rounded=0;orthogonalLoop=1;jettySize=auto;html=1;" edge="1" parent="1" source="YCnehJ6aSk7mKg9QGopF-37">
          <mxGeometry relative="1" as="geometry">
            <mxPoint x="480" y="300" as="targetPoint" />
          </mxGeometry>
        </mxCell>
        <mxCell id="YCnehJ6aSk7mKg9QGopF-37" value="多重性&lt;br&gt;(用數字和*表示)&lt;br&gt;1...*:1個或多個&lt;br&gt;1個類圖有1個或多個類&lt;br&gt;1個類屬於1個或多個類圖" style="whiteSpace=wrap;html=1;aspect=fixed;align=center;" vertex="1" parent="1">
          <mxGeometry x="580" y="277" width="140" height="140" as="geometry" />
        </mxCell>
        <mxCell id="YCnehJ6aSk7mKg9QGopF-40" value="1..*" style="text;html=1;strokeColor=none;fillColor=none;align=center;verticalAlign=middle;whiteSpace=wrap;rounded=0;" vertex="1" parent="1">
          <mxGeometry x="430" y="300" width="60" height="30" as="geometry" />
        </mxCell>
      </root>
    </mxGraphModel>
  </diagram>
</mxfile>
